<svg xmlns="http://www.w3.org/2000/svg" viewBox="0 0 180 180">
  <rect width="180" height="180" rx="40" fill="#101827"/>
  <path d="M56 39H124C133.4 39 141 46.6 141 56V124C141 133.4 133.4 141 124 141H56C46.6 141 39 133.4 39 124V56C39 46.6 46.6 39 56 39Z" fill="#f8fafc"/>
  <path d="M75 69L55 89L75 109L83 101L71 89L83 77L75 69Z" fill="#0f172a"/>
  <path d="M105 69L125 89L105 109L97 101L109 89L97 77L105 69Z" fill="#0f172a"/>
  <path d="M96 63L108 67L86 118L74 114L96 63Z" fill="#0f172a"/>
  <path d="M118 109H141L158 126L128 156L98 126V120C98 113.9 102.9 109 109 109H118Z" fill="#f97316"/>
  <circle cx="116" cy="123" r="6" fill="#fff7ed"/>
  <path d="M129 21C151 31 166 53 166 82H154C154 59 141 39 123 31L129 21Z" fill="#14b8a6"/>
  <path d="M145 47C154 56 159 68 159 82H150C150 70 146 61 138 53L145 47Z" fill="#5eead4"/>
</svg>
