<svg xmlns="http://www.w3.org/2000/svg" viewBox="0 0 64 64">
  <rect width="64" height="64" rx="16" fill="#101827"/>
  <path d="M20 14H44C47.3 14 50 16.7 50 20V44C50 47.3 47.3 50 44 50H20C16.7 50 14 47.3 14 44V20C14 16.7 16.7 14 20 14Z" fill="#f8fafc"/>
  <path d="M27 24.5L20 31.5L27 38.5L30 35.5L26 31.5L30 27.5L27 24.5Z" fill="#0f172a"/>
  <path d="M37 24.5L44 31.5L37 38.5L34 35.5L38 31.5L34 27.5L37 24.5Z" fill="#0f172a"/>
  <path d="M34 22.5L38 23.8L31 41.5L27 40.2L34 22.5Z" fill="#0f172a"/>
  <path d="M42 38.5H50L56 44.5L45.5 55L35 44.5V42.5C35 40.3 36.8 38.5 39 38.5H42Z" fill="#f97316"/>
  <circle cx="41.5" cy="43.5" r="2" fill="#fff7ed"/>
  <path d="M45.6 7.7C54 11.5 59 19.7 59 28.8H55C55 21.2 50.7 14.4 44.1 11.3L45.6 7.7Z" fill="#14b8a6"/>
  <path d="M51.6 16.8C54.8 20.1 56.5 24.3 56.5 28.8H53.5C53.5 25 52.1 21.5 49.4 18.9L51.6 16.8Z" fill="#5eead4"/>
</svg>
